<svg version="1.1" width="200" height="200" xmlns="http://www.w3.org/2000/svg"><path d="M 50.0,50.0 L 150.0,50.0 L 150.0,150.0 L 50.0,150.0 L 50.0,50.0" d="M 50,50 L 150,50 L 150,150 L 50,150 Z" fill="#0000ff"/><path d="M 50.0,50.0 C 100.0,0.0 100.0,100.0 150.0,50.0" d="M 50,50 C 100,0 100,100 150,50" fill="#00ff00"/><path d="M 50.0,100.0 Q 100.0,50.0 150.0,100.0" d="M 50,100 Q 100,50 150,100" fill="#ffff00"/><path d="M 50.0,150.0 A 50.0,50.0 0.0 1,1 150.0,150.0" d="M 50,150 A 50,50 0 1,1 150,150" fill="#0000ff"/><path d="M 50.0,50.0 C 100.0,0.0 100.0,100.0 150.0,50.0 Q 150.0,100.0 100.0,150.0 C 50.0,100.0 50.0,0.0 50.0,50.0" d="M 50,50 C 100,0 100,100 150,50 Q 150,100 100,150 C 50,100 50,0 50,50" fill="#ff0000"/></svg>