<svg version="1.1" width="200" height="200" xmlns="http://www.w3.org/2000/svg"><path d="M 50.0,50.0 L 150.0,50.0 L 150.0,150.0 L 50.0,150.0 L 50.0,50.0" d="M 50,50 L 150,50 L 150,150 L 50,150 Z" fill="red"/><path d="M 50.0,50.0 C 99.88117124403541,0.1364652127732899 99.93180615699691,99.977307295648 150.0255805627084,49.92483791074285" d="M 50,50 C 100,0 100,100 150,50" fill="blue"/><path d="M 50.0,100.0 Q 99.9058762209873,50.10809354541945 149.94598393161027,99.98202520027841" d="M 50,100 Q 100,50 150,100" fill="green"/><path d="M 50.0,50.0 C 99.95030885752021,0.05706625703860584 99.97148308133495,99.99051049221164 150.0106971361935,49.968569139211816 M 150.0,50.0 Q 149.9503088575202,100.0570662570386 99.97148308133495,149.99051049221165 M 100.0,150.0 C 49.950308857520206,100.0570662570386 49.971483081334945,-0.00948950778835891 50.01069713619349,49.968569139211816" d="M 50,50 C 100,0 100,100 150,50 Q 150,100 100,150 C 50,100 50,0 50,50" fill="orange"/></svg>