<svg version="1.1" width="200" height="200" xmlns="http://www.w3.org/2000/svg"><path d="M 48.61459684285955,48.61459684285955 L 145.84379052857864,48.61459684285955 L 145.84379052857864,145.84379052857864 L 48.61459684285955,145.84379052857864 L 48.61459684285955,48.61459684285954" d="M 50,50 L 150,50 L 150,150 L 50,150 Z" fill="red"/><path d="M 48.61459684285955,48.61459684285955 C 97.2291936857191,0.0 97.2291936857191,97.22919368571911 145.84379052857864,48.61459684285958" d="M 50,50 C 100,0 100,100 150,50" fill="blue"/><path d="M 48.61459684285955,97.2291936857191 Q 97.2291936857191,48.61459684285955 145.84379052857864,97.2291936857191" d="M 50,100 Q 100,50 150,100" fill="green"/><path d="M 48.61459684285955,145.84379052857864 A 48.61459684285955,48.61459684285955 0.0 1,1 145.84379052857864,145.84379052857864" d="M 50,150 A 50,50 0 1,1 150,150" fill="purple"/><path d="M 48.61459684285955,48.61459684285955 C 97.2291936857191,0.0 97.2291936857191,97.22919368571911 145.84379052857864,48.61459684285955 Q 145.84379052857864,97.2291936857191 97.2291936857191,145.84379052857864 C 48.61459684285955,97.22919368571908 48.61459684285955,0.0 48.61459684285954,48.614596842859555" d="M 50,50 C 100,0 100,100 150,50 Q 150,100 100,150 C 50,100 50,0 50,50" fill="orange"/></svg>