<svg version="1.1" width="200" height="200" xmlns="http://www.w3.org/2000/svg"><path d="M 41.75398034586996,57.55181196955216 L 141.75398034586996,57.55181196955216 L 141.75398034586996,157.55181196955218 L 41.75398034586996,157.55181196955218 L 41.75398034586996,57.55181196955216" d="M 50,50 L 150,50 L 150,150 L 50,150 Z" fill="red"/><path d="M 41.75398034586996,57.55181196955216 C 91.75398034586996,7.5518119695521655 91.75398034586996,107.55181196955216 141.75398034586996,57.55181196955216" d="M 50,50 C 100,0 100,100 150,50" fill="blue"/><path d="M 41.75398034586996,107.55181196955216 Q 91.75398034586996,57.55181196955216 141.75398034586996,107.55181196955216" d="M 50,100 Q 100,50 150,100" fill="green"/><path d="M 41.75398034586996,157.55181196955218 A 50.0,50.0 0.0 1,1 141.75398034586996,157.55181196955218" d="M 50,150 A 50,50 0 1,1 150,150" fill="purple"/><path d="M 41.75398034586996,57.55181196955216 C 91.75398034586996,7.5518119695521655 91.75398034586996,107.55181196955216 141.75398034586996,57.55181196955216 Q 141.75398034586996,107.55181196955216 91.75398034586996,157.55181196955218 C 41.75398034586996,107.55181196955216 41.75398034586996,7.5518119695521655 41.75398034586996,57.55181196955216" d="M 50,50 C 100,0 100,100 150,50 Q 150,100 100,150 C 50,100 50,0 50,50" fill="orange"/></svg>