<svg version="1.1" width="200" height="200" xmlns="http://www.w3.org/2000/svg"><path d="M 49.6219158704558,45.96810243039026 L 149.6219158704558,45.96810243039026 L 149.6219158704558,145.96810243039027 L 49.6219158704558,145.96810243039027 L 49.6219158704558,45.96810243039026" d="M 50,50 L 150,50 L 150,150 L 50,150 Z" fill="red"/><path d="M 47.56529162731654,44.06291372070288 C 95.49299735263725,-3.864792004617833 95.49299735263725,91.99061944602357 143.42070307795797,44.06291372070285" d="M 50,50 C 100,0 100,100 150,50" fill="#ffff00"/><path d="M 52.18545161331877,99.95221517856683 Q 99.95221517856683,47.81454838668123 152.08988197045244,95.5813119519293" d="M 50,100 Q 100,50 150,100" fill="#ff00ff"/><path d="M 50.0,50.0 C 99.9959745959545,-0.043920114336249455 100.02444875664641,100.04222372644101 150.02715082602714,49.90454909523738 M 150.0,50.0 Q 149.9959745959545,99.95607988566375 100.02444875664641,150.04222372644102 M 100.0,150.0 C 49.995974595954486,99.95607988566375 50.02444875664641,0.0422237264410109 50.027150826027146,49.90454909523738" d="M 50,50 C 100,0 100,100 150,50 Q 150,100 100,150 C 50,100 50,0 50,50" fill="orange"/></svg>