<svg version="1.1" width="200" height="200" xmlns="http://www.w3.org/2000/svg"><path d="M 50.0,50.0 L 149.76043252710429,43.08218950786659 L 156.6782430192377,142.84262203497087 L 56.91781049213341,149.76043252710429 L 50.0,50.0" d="M 50,50 L 150,50 L 150,150 L 50,150 Z" fill="red"/><path d="M 50.0,50.0 C 96.42131101748544,-3.339121509618849 103.33912150961885,96.42131101748544 149.76043252710429,43.08218950786659" d="M 50,50 C 100,0 100,100 150,50" fill="blue"/><path d="M 53.458905246066706,99.88021626355214 Q 99.88021626355214,46.541094753933294 153.219337773171,92.96240577141873" d="M 50,100 Q 100,50 150,100" fill="green"/><path d="M 56.91781049213341,149.76043252710429 A 50.0,50.0 -3.9667816591060046 1,1 156.6782430192377,142.84262203497087" d="M 50,150 A 50,50 0 1,1 150,150" fill="purple"/><path d="M 50.0,50.0 C 96.42131101748544,-3.339121509618849 103.33912150961885,96.42131101748544 149.76043252710429,43.08218950786659 Q 153.219337773171,92.96240577141873 106.79802675568556,146.30152728103758 C 53.458905246066706,99.88021626355214 46.541094753933294,0.11978373644785734 50.0,50.0" d="M 50,50 C 100,0 100,100 150,50 Q 150,100 100,150 C 50,100 50,0 50,50" fill="orange"/></svg>